<mxfile host="app.diagrams.net" modified="2023-09-15T07:07:05.601Z" agent="Mozilla/5.0 (X11; Linux x86_64) AppleWebKit/537.36 (KHTML, like Gecko) Chrome/115.0.0.0 Safari/537.36" version="21.3.8" etag="TBYTcFQhRlsUP84Rvx5U" type="github">
  <diagram name="第 1 页" id="kDvOw6-ZEk-259K7vuvF">
    <mxGraphModel>
      <root>
        <mxCell id="0" />
        <mxCell id="1" parent="0" />
      </root>
    </mxGraphModel>
  </diagram>
</mxfile>
